<svg xmlns="http://www.w3.org/2000/svg" xmlns:xlink="http://www.w3.org/1999/xlink" width="41.828" height="54" viewBox="0 0 41.828 54">
  <defs>
    <clipPath id="clip-path">
      <rect id="Rectangle_1" data-name="Rectangle 1" width="41.828" height="54" fill="#e50e46"/>
    </clipPath>
  </defs>
  <g id="Group_2" data-name="Group 2" transform="translate(0 0)">
    <g id="Group_1" data-name="Group 1" transform="translate(0 0)" clip-path="url(#clip-path)">
      <path id="Path_1" data-name="Path 1" d="M20.913,54A20.936,20.936,0,0,1,0,33.086C0,21.917,18.972,2.021,19.781,1.18L20.913,0l1.133,1.18c.808.841,19.782,20.737,19.782,31.906A20.937,20.937,0,0,1,20.913,54m0-49.44C15.062,10.9,3.14,25.4,3.14,33.086a17.774,17.774,0,0,0,35.549,0c0-7.689-11.923-22.188-17.775-28.527" transform="translate(0 0)" fill="red"/>
    </g>
  </g>
</svg>
