<svg xmlns="http://www.w3.org/2000/svg" xmlns:xlink="http://www.w3.org/1999/xlink" width="1152.656" height="212.027" viewBox="0 0 1152.656 212.027">
  <defs>
    <clipPath id="clip-path">
      <rect id="Rectangle_5" data-name="Rectangle 5" width="1152.656" height="212.028" fill="none"/>
    </clipPath>
  </defs>
  <g id="Group_2" data-name="Group 2" transform="translate(0 0)">
    <g id="Group_1" data-name="Group 1" transform="translate(0 0)" clip-path="url(#clip-path)">
      <path id="Path_1" data-name="Path 1" d="M0,131.061V21.595H27.98l2.807,12.83,2.548-3.259c6.233-7.98,13.706-12.023,22.215-12.023,5.291,0,11.69,1.942,14.676,2.956l-8.093,27.11a23.034,23.034,0,0,0-10.464-2.289c-7.109,0-15.293,3.655-18.585,9.991v74.151Z" transform="translate(0 33.587)" fill="#fff"/>
      <path id="Path_2" data-name="Path 2" d="M78.732,133.513c-32.828,0-55.754-22.846-55.754-55.55,0-33.533,24.058-58.82,55.958-58.82,31.123,0,53.713,21.215,53.713,50.446a83.06,83.06,0,0,1-1.355,14.91h-74.9l.545,2.377c2.936,12.833,11.924,20.493,24.041,20.493,13.753,0,19.761-5.806,26.038-14.2L128.2,107.75c-13.836,18.507-27.859,25.763-49.471,25.763m1.226-89.045c-10.718,0-17.948,5.322-21.493,15.814L57.6,62.849H99.25l-.295-2.2c-1.358-10.128-8.459-16.177-19-16.177" transform="translate(40.315 33.587)" fill="#fff"/>
      <path id="Path_3" data-name="Path 3" d="M101.5,129.5,60.446,20.033H97l19.6,64.381,20.221-64.381h36.965L128.047,129.5Z" transform="translate(106.052 35.148)" fill="#fff"/>
      <path id="Path_4" data-name="Path 4" d="M158.944,129.5,117.894,20.033h36.558l19.6,64.381,20.221-64.381h36.965L185.494,129.5Z" transform="translate(206.844 35.148)" fill="#fff"/>
      <path id="Path_5" data-name="Path 5" d="M266.636,159.788c-27.829,0-49.628-25.3-49.628-57.591,0-31.839,21.89-56.776,49.832-56.776,3.989,0,17.783.678,27.82,9.409l3.223,2.8V4.167h33.084V157.336H303.194l-3.181-12.726-2.451,2.892c-9.657,11.4-26.11,12.285-30.925,12.285m8.17-86.593c-15.954,0-24.3,15-24.3,29.817,0,14.059,8.374,29,23.9,29l.78-.008c12.941-.242,22.705-12.941,22.705-29.534s-9.8-29.195-22.8-29.278Z" transform="translate(380.74 7.311)" fill="#fff"/>
      <path id="Path_6" data-name="Path 6" d="M336.772,178.439a95.72,95.72,0,0,1-49.818-14.4l12.533-26.212c12.93,9.431,27.066,12.839,36.263,12.839,14.794,0,23.281-8.561,23.281-23.488v-8.3l-3.226,2.818c-9.938,8.69-23.959,9.363-28.021,9.363-27.829,0-49.628-24.76-49.628-56.368,0-31.668,21.424-55.547,49.832-55.547,4.773,0,21.1.9,30.71,12.423l2.463,2.953,3.181-12.927h27.774V125.955c0,11.318-2.474,21.144-7.352,29.2-8.916,14.8-26.407,23.281-47.992,23.281m-.818-131.522c-16.7,0-24.3,14.822-24.3,28.594,0,13.8,8.208,27.774,23.9,27.774l.782-.008c13.574-.253,22.7-11.139,22.7-27.082,0-16.607-9.8-29.195-22.8-29.278Z" transform="translate(488.024 33.588)" fill="#fff"/>
      <rect id="Rectangle_1" data-name="Rectangle 1" width="33.084" height="109.467" transform="translate(285.749 55.181)" fill="#fff"/>
      <path id="Path_7" data-name="Path 7" d="M212.006,133.513c-32.828,0-55.754-22.846-55.754-55.55,0-33.533,24.055-58.82,55.958-58.82,31.123,0,53.713,21.215,53.713,50.446a75.4,75.4,0,0,1-1.314,14.91H189.667l.545,2.377c2.936,12.833,11.924,20.493,24.041,20.493,13.753,0,19.761-5.806,26.038-14.2l21.185,14.582c-13.836,18.507-27.859,25.763-49.471,25.763m1.226-89.045c-10.718,0-17.948,5.322-21.493,15.814l-.865,2.567h41.651l-.295-2.2c-1.358-10.128-8.459-16.177-19-16.177" transform="translate(274.144 33.587)" fill="#fff"/>
      <rect id="Rectangle_2" data-name="Rectangle 2" width="33.084" height="109.467" transform="translate(723.83 55.181)" fill="#fff"/>
      <rect id="Rectangle_3" data-name="Rectangle 3" width="33.084" height="109.467" transform="translate(891.444 55.181)" fill="#fff"/>
      <path id="Path_8" data-name="Path 8" d="M386.8,146.91c-17.183,0-30.173-9.781-33.9-25.529-1.259-5.457-1.43-11.632-1.43-16.951V61.95H339.011V34.992H351.47L357.6,11.507h26.958V34.992h26.958V61.95H384.554v40.031a51.289,51.289,0,0,0,.614,9.8c.923,5.082,3.256,7.355,7.556,7.355a22.52,22.52,0,0,0,9.985-2.149l10.743,24.019c-8.393,4.333-19.119,5.9-26.65,5.9" transform="translate(594.794 20.189)" fill="#fff"/>
      <path id="Path_9" data-name="Path 9" d="M405.685,133.513c-19.207,0-39.621-12.384-39.621-35.332,0-25.749,24.477-34.922,47.38-34.922a83.585,83.585,0,0,1,16.425,1.727l2.424.5-.091-2.471c-.471-12.927-6.823-18.948-19.984-18.948-11.759,0-21.893,4.2-30.57,8.451L372.78,30.007A109.959,109.959,0,0,1,419.57,19.143c29.074,0,45.747,16.9,45.747,46.361v65.557H437.543L434.56,122.7l-2.173,2.118c-7.354,7.181-18.582,8.69-26.7,8.69m13.478-51.261c-7.812,0-13.525,1.782-16.984,5.294-2.62,2.658-3.914,6.244-3.848,10.663.132,8.605,7.732,13.249,14.816,13.249,6.853-.044,11.913-1.733,15.136-5.019a14.916,14.916,0,0,0,3.95-10.941c-.1-7.528-5.666-13.222-12.954-13.246Z" transform="translate(642.259 33.587)" fill="#fff"/>
      <rect id="Rectangle_4" data-name="Rectangle 4" width="33.084" height="153.172" transform="translate(1119.571 11.478)" fill="#fff"/>
      <path id="Path_10" data-name="Path 10" d="M123.183,0a21.175,21.175,0,1,0,21.177,21.177A21.2,21.2,0,0,0,123.183,0" transform="translate(178.969 0)" fill="#fff"/>
      <path id="Path_11" data-name="Path 11" d="M282.068,0a21.175,21.175,0,1,0,21.177,21.177A21.2,21.2,0,0,0,282.068,0" transform="translate(457.733 0)" fill="#fff"/>
      <path id="Path_12" data-name="Path 12" d="M219.926,45.194A21.175,21.175,0,1,0,241.1,66.371a21.2,21.2,0,0,0-21.177-21.177" transform="translate(348.705 79.293)" fill="#e50e46"/>
      <path id="Path_13" data-name="Path 13" d="M343.5,0a21.175,21.175,0,1,0,21.177,21.177A21.2,21.2,0,0,0,343.5,0" transform="translate(565.521 0)" fill="#fff"/>
    </g>
  </g>
</svg>
